<!-- Generated by IcoMoon.io -->
<svg version="1.1" fill="white" xmlns="http://www.w3.org/2000/svg" width="32" height="32" viewBox="0 0 32 32">
<title>social-twitter</title>
<path d="M31.159 6.473c-0.203-0.223-0.529-0.279-0.797-0.141-0.167 0.085-0.48 0.197-0.852 0.308 0.469-0.624 0.847-1.323 1.013-1.951 0.072-0.271-0.033-0.556-0.263-0.717-0.229-0.16-0.535-0.16-0.764 0-0.361 0.252-2.105 1.009-3.208 1.255-2.492-2.183-5.392-2.409-8.407-0.649-2.451 1.431-2.984 4.34-2.88 6.113-5.609-0.54-9.096-3.503-11.059-5.955-0.137-0.172-0.359-0.263-0.567-0.249-0.219 0.016-0.416 0.137-0.528 0.325-0.928 1.567-1.185 3.299-0.741 5.009 0.243 0.933 0.667 1.756 1.159 2.423-0.236-0.116-0.464-0.261-0.679-0.435-0.197-0.163-0.473-0.193-0.707-0.085-0.232 0.111-0.38 0.345-0.38 0.603 0 2.937 1.837 4.897 3.553 5.921-0.277-0.033-0.567-0.095-0.859-0.184-0.251-0.076-0.523 0-0.696 0.197-0.173 0.196-0.215 0.476-0.107 0.715 0.964 2.132 2.791 3.599 5.051 4.131-1.973 1.159-4.615 1.727-7.033 1.448-0.313-0.044-0.612 0.155-0.711 0.456s0.031 0.632 0.307 0.787c3.669 2.060 6.987 2.796 9.853 2.796 4.172 0 7.392-1.557 9.352-2.86 5.284-3.507 8.577-9.803 8.119-15.436 0.847-0.625 2.113-1.78 2.899-3.021 0.163-0.251 0.133-0.581-0.069-0.803z"></path>
</svg>
