<!-- Generated by IcoMoon.io -->
<svg version="1.1" fill="white" xmlns="http://www.w3.org/2000/svg" width="32" height="32" viewBox="0 0 32 32">
<title>social-facebook</title>
<path d="M20 5.333h4c0.368 0 0.667-0.299 0.667-0.667v-4c0-0.368-0.299-0.667-0.667-0.667h-4c-4.043 0-7.333 3.289-7.333 7.333v4.667h-4.667c-0.368 0-0.667 0.299-0.667 0.667v4c0 0.368 0.299 0.667 0.667 0.667h4.667v14c0 0.368 0.299 0.667 0.667 0.667h4c0.368 0 0.667-0.299 0.667-0.667v-14h4.667c0.287 0 0.541-0.184 0.633-0.456l1.333-4c0.068-0.203 0.033-0.427-0.092-0.601-0.127-0.173-0.327-0.276-0.541-0.276h-6v-4.667c0-1.103 0.897-2 2-2z"></path>
</svg>
