<svg width="14" height="14" viewBox="0 0 14 14" fill="none" xmlns="http://www.w3.org/2000/svg">
<path d="M12.25 10.5C12.25 10.9641 12.0656 11.4092 11.7374 11.7374C11.4092 12.0656 10.9641 12.25 10.5 12.25H3.5C3.03587 12.25 2.59075 12.0656 2.26256 11.7374C1.93437 11.4092 1.75 10.9641 1.75 10.5V9.625H0V10.5C0 11.4283 0.368749 12.3185 1.02513 12.9749C1.6815 13.6313 2.57174 14 3.5 14H10.5C11.4283 14 12.3185 13.6313 12.9749 12.9749C13.6313 12.3185 14 11.4283 14 10.5V9.625H12.25V10.5Z" fill="black"/>
<path d="M6.125 0V7.51188L4.375 5.76188L3.13688 7L6.38094 10.2441C6.4622 10.3254 6.5587 10.39 6.66493 10.434C6.77115 10.478 6.88501 10.5007 7 10.5007C7.11499 10.5007 7.22885 10.478 7.33507 10.434C7.4413 10.39 7.5378 10.3254 7.61906 10.2441L10.8631 7L9.625 5.76188L7.875 7.51188V0H6.125Z" fill="black"/>
</svg>
