<svg width="78" height="91" viewBox="0 0 78 91" fill="none" xmlns="http://www.w3.org/2000/svg">
<path d="M39 22L59.7846 34V58L39 70L18.2154 58V34L39 22Z" fill="white"/>
<path d="M15.2513 32.2887L39 18.5774L62.7487 32.2887V59.7113L39 73.4226L15.2513 59.7113V32.2887Z" stroke="white"/>
<path d="M8.2561 29.0387L38.5 11.5774L68.7439 29.0387V63.9613L38.5 81.4226L8.2561 63.9613V29.0387Z" stroke="white" stroke-opacity="0.15"/>
<path d="M5.72501 27.7887L39 8.57735L72.275 27.7887V66.2113L39 85.4226L5.72501 66.2113V27.7887Z" stroke="white" stroke-opacity="0.15"/>
<path d="M0.528858 23.5339L39 0.582221L77.4711 23.5339V69.4661L39 92.4178L0.528858 69.4661V23.5339Z" stroke="white" stroke-opacity="0.15"/>
</svg>