<svg height="421pt" viewBox="-98 0 421 421.73719" width="421pt" xmlns="http://www.w3.org/2000/svg"><path d="m113.015625 6.835938-28.144531 42.21875 14.070312 35.1875h28.148438l14.074218-35.1875zm0 0" fill="#d3d3d3"/><path d="m105.980469 6.835938h14.074219v49.257812h-14.074219zm0 0"/><path d="m102.0625 124.96875h21.910156l3.117188-3.433594v-37.292968h-28.144532v37.292968zm0 0" fill="#6f6f6f"/><path d="m120.054688 414.960938 14.074218-211.097657-7.039062-41.367187c-8.476563-5.828125-19.667969-5.828125-28.144532 0l-7.039062 41.367187 14.074219 211.097657zm0 0" fill="#00448f"/><path d="m198.949219 199.941406 19.617187-17.710937c-5.3125-12.832031-5.324218-12.859375-10.644531-25.695313l-26.394531 1.351563-15.480469-15.480469 1.347656-26.394531-25.710937-10.664063-17.710938 19.621094h-21.914062l-17.710938-19.621094-25.695312 10.648438 1.351562 26.394531-15.480468 15.480469-26.394532-1.351563c-5.335937 12.863281-5.351562 12.863281-10.664062 25.710938l19.621094 17.710937v21.914063l-19.621094 17.710937c5.3125 12.835938 5.328125 12.863282 10.648437 25.699219l26.394531-1.351563 15.480469 15.480469-1.351562 26.394531 25.710937 10.660157 14.023438-15.539063-2.6875-40.386718c-27.527344-9.574219-42.085938-39.648438-32.515625-67.179688 9.574219-27.53125 39.648437-42.089844 67.179687-32.515625 27.53125 9.570313 42.089844 39.648437 32.515625 67.175781-5.296875 15.242188-17.277343 27.21875-32.515625 32.519532l-2.6875 40.386718 14.023438 15.539063 25.699218-10.648438-1.351562-26.394531 15.480469-15.480469 26.394531 1.351563c5.320312-12.835938 5.332031-12.863282 10.644531-25.699219l-19.617187-17.710937zm0 0" fill="#ffcb5a"/><path d="m141.164062 91.277344h-56.292968c-3.886719 0-7.035156-3.152344-7.035156-7.035156 0-3.886719 3.148437-7.039063 7.035156-7.039063h56.292968c3.886719 0 7.035157 3.152344 7.035157 7.039063 0 3.882812-3.148438 7.035156-7.035157 7.035156zm0 0" fill="#5b5b5b"/><path d="m18.464844 149.511719c-2.980469-.1875-5.742188 1.5625-6.851563 4.335937l-10.648437 25.691406c-1.136719 2.75-.421875 5.921876 1.789062 7.914063l17.292969 15.621094v15.652343l-17.292969 15.621094c-2.210937 1.996094-2.929687 5.164063-1.789062 7.914063l10.648437 25.691406c1.136719 2.75 3.882813 4.484375 6.851563 4.335937l23.277344-1.183593 11.070312 11.070312-1.183594 23.277344c-.148437 2.96875 1.585938 5.714844 4.335938 6.851563l25.691406 10.648437c2.75 1.136719 5.921875.421875 7.914062-1.789063l2.894532-3.203124 6.480468 97.464843c.246094 3.703125 3.324219 6.582031 7.035157 6.574219h14.074219c3.710937.007812 6.789062-2.871094 7.035156-6.574219l6.496094-97.464843 2.890624 3.203124c1.996094 2.210938 5.167969 2.925782 7.917969 1.789063l25.691407-10.648437c2.746093-1.136719 4.480468-3.882813 4.332031-6.851563l-1.179688-23.277344 11.066407-11.070312 23.277343 1.183593c2.960938.109376 5.6875-1.613281 6.855469-4.335937l10.644531-25.691406c1.140625-2.75.425781-5.921875-1.785156-7.917969l-17.296875-15.621094v-15.648437l17.296875-15.621094c2.210937-1.996094 2.925781-5.164063 1.785156-7.917969l-10.644531-25.691406c-1.140625-2.746094-3.882812-4.480469-6.855469-4.332031l-23.277343 1.179687-11.066407-11.066406 1.179688-23.277344c.148437-2.972656-1.585938-5.71875-4.335938-6.855468l-25.691406-10.644532c-2.75-1.140625-5.917969-.425781-7.914063 1.785156l-2.351562 2.605469v-11.960937h7.039062c3.886719 0 7.035157-3.152344 7.035157-7.035156 0-3.886719-3.148438-7.039063-7.035157-7.039063h-3.683593l10.21875-25.527344c.855469-2.15625.59375-4.597656-.703125-6.523437l-28.144532-42.21875c-2.417968-3.234375-7-3.894532-10.234374-1.476563-.558594.417969-1.054688.914063-1.476563 1.476563l-28.144531 42.21875c-1.296875 1.925781-1.558594 4.367187-.703125 6.523437l10.257812 25.527344h-3.679687c-3.886719 0-7.035156 3.152344-7.035156 7.039063 0 3.882812 3.148437 7.035156 7.035156 7.035156h7.035156v11.960937l-2.335938-2.582031c-1.992187-2.210938-5.164062-2.925781-7.914062-1.785156l-25.691406 10.644531c-2.75 1.140625-4.484375 3.882813-4.335938 6.855469l1.183594 23.277344-11.070312 11.066406zm95.003906 258.414062h-.902344l-13.578125-203.703125 6.332031-37.203125c2.347657-1.160156 4.917969-1.789062 7.535157-1.851562h.339843c2.617188.058593 5.1875.691406 7.535157 1.851562l6.332031 37.203125zm-7.488281-377.867187v26.035156h14.074219v-26.035156l13.199218 19.800781-10.925781 27.34375h-18.617187l-10.929688-27.324219zm14.074219 61.21875v26.652344h-14.074219v-26.652344zm-70.570313 71.582031 15.480469-15.480469c1.402344-1.40625 2.148437-3.34375 2.046875-5.332031l-1.09375-21.433594 16.523437-6.847656 11.257813 12.476563 3.117187 3.449218c1.335938 1.476563 3.234375 2.320313 5.222656 2.320313h21.910157c1.992187 0 3.890625-.84375 5.222656-2.320313l3.117187-3.449218 11.257813-12.476563 16.523437 6.847656-1.089843 21.433594c-.101563 1.988281.640625 3.925781 2.046875 5.332031l15.480468 15.480469c1.410157 1.402344 3.347657 2.144531 5.332032 2.046875l21.433594-1.089844 6.847656 16.523438-15.890625 14.375c-1.476563 1.335937-2.320313 3.230468-2.320313 5.222656v21.910156c0 1.992188.84375 3.886719 2.320313 5.222656l15.933593 14.382813-6.847656 16.523437-21.433594-1.09375c-1.988281-.101562-3.925781.644532-5.332031 2.050782l-15.480469 15.480468c-1.40625 1.40625-2.152343 3.34375-2.046874 5.332032l1.089843 21.433594-16.523437 6.847656-8.703125-9.640625 2.203125-32.976563c30.242187-13.285156 43.988281-48.574218 30.699218-78.816406-13.289062-30.242188-48.574218-43.988281-78.816406-30.699219-30.246094 13.285157-43.988281 48.574219-30.703125 78.816407 6.027344 13.71875 16.984375 24.675781 30.703125 30.699218l2.199219 32.976563-8.703125 9.640625-16.523438-6.847656 1.09375-21.433594c.101563-1.988282-.644531-3.925782-2.046874-5.332032l-15.484376-15.480468c-1.410156-1.398438-3.347656-2.140625-5.332031-2.050782l-21.433593 1.09375-6.84375-16.523437 15.902343-14.367187c1.476563-1.335938 2.320313-3.234376 2.320313-5.222657v-21.921875c0-1.988281-.84375-3.886718-2.320313-5.21875l-15.933593-14.382812 6.847656-16.523438 21.433594 1.089844c1.988281.113281 3.929687-.632812 5.335937-2.046875zm91.582031 39.828125-5.347656-31.4375c21.800781 12.320312 29.488281 39.980469 17.167969 61.785156-3.574219 6.324219-8.617188 11.695313-14.699219 15.664063l2.976562-44.371094c.03125-.550781-.003906-1.101563-.097656-1.640625zm-53.21875 46.011719c-20.972656-13.683594-26.882812-41.777344-13.199218-62.753907 3.96875-6.082031 9.34375-11.125 15.667968-14.699218l-5.347656 31.441406c-.09375.539062-.121094 1.089844-.085938 1.640625zm0 0"/></svg>